# xmcd
#
# Track frame offsets: 
#        150
#        12206
#        22277
#        35348
#        46344
#        60906
#        71382
#        86891
#        102313
#        117808
#        128013
#
# Disc length: 2153 seconds
#
# Revision: 1
# Processed by: cddbd v1.5.2PL0 Copyright (c) Steve Scherf et al.
# Submitted via: ExactAudioCopy v0.99pb5
#
DISCID=8908670b
DTITLE=Pulled Apart By Horses - Pulled Apart By Horses
DYEAR=2010
DGENRE=Rock
TTITLE0=Back To The Fuck Yeah
TTITLE1=The Crapsons
TTITLE2=High Five, Swan Dive, Nose Dive
TTITLE3=Yeah Buddy
TTITLE4=I Punched A Lion In The Throat
TTITLE5=I've Got A Guestlist To Rory O'Hara's Suicide
TTITLE6=Get Off My Ghost Train
TTITLE7=Meat Balloon
TTITLE8=Moonlit Talons
TTITLE9=The Lighthouse
TTITLE10=Den Horn
EXTD=
EXTT0=
EXTT1=
EXTT2=
EXTT3=
EXTT4=
EXTT5=
EXTT6=
EXTT7=
EXTT8=
EXTT9=
EXTT10=
PLAYORDER=
